<?xml version="1.0" encoding="UTF-8"?>
<!-- Created with Inkscape (http://www.inkscape.org/) -->
<svg id="SVGRoot" width="48px" height="48px" version="1.1" viewBox="0 0 48 48" xmlns="http://www.w3.org/2000/svg" xmlns:cc="http://creativecommons.org/ns#" xmlns:dc="http://purl.org/dc/elements/1.1/" xmlns:rdf="http://www.w3.org/1999/02/22-rdf-syntax-ns#">
 <metadata id="metadata1054">
  <rdf:RDF>
   <cc:Work rdf:about="">
    <dc:format>image/svg+xml</dc:format>
    <dc:type rdf:resource="http://purl.org/dc/dcmitype/StillImage"/>
    <dc:title/>
   </cc:Work>
  </rdf:RDF>
 </metadata>
 <g id="layer1">
  <g id="g1022" transform="translate(-26,-12)">
   <rect id="rect2" x="26" y="12" width="48" height="48" rx="4" fill="#161514"/>
   <path id="path4" d="m32 36.456c0 8.1542 5.1576 15.072 12.31 17.513 0.8996 0.1708 1.2299-0.4004 1.2299-0.8878 0-0.4401-0.0167-1.894-0.0245-3.4361-5.0076 1.1164-6.0643-2.1775-6.0643-2.1775-0.8188-2.1333-1.9986-2.7005-1.9986-2.7005-1.6332-1.1455 0.1231-1.1219 0.1231-1.1219 1.8075 0.1302 2.7593 1.9018 2.7593 1.9018 1.6054 2.8215 4.2109 2.0058 5.238 1.5342 0.1616-1.1928 0.6281-2.0069 1.1429-2.4678-3.9981-0.4667-8.201-2.0492-8.201-9.1209 0-2.015 0.7032-3.6613 1.8547-4.9538-0.1869-0.4648-0.8031-2.3419 0.1743-4.8841 0 0 1.5116-0.496 4.9513 1.8918 1.4359-0.4089 2.9757-0.614 4.5054-0.621 1.5298 7e-3 3.0708 0.2121 4.5093 0.621 3.4356-2.3878 4.9451-1.8918 4.9451-1.8918 0.9798 2.5422 0.3633 4.4193 0.1765 4.8841 1.1541 1.2925 1.8525 2.9388 1.8525 4.9538 0 7.0885-4.2109 8.6493-8.2191 9.1062 0.6456 0.5727 1.2209 1.6959 1.2209 3.4177 0 2.4694-0.0209 4.4569-0.0209 5.0648 0 0.4911 0.324 1.0666 1.2364 0.8853 7.1482-2.4431 12.299-9.3586 12.299-17.51 0-10.193-8.0591-18.456-18-18.456-9.9399 0-18 8.2627-18 18.456z" clip-rule="evenodd" fill="#fff" fill-rule="evenodd"/>
  </g>
 </g>
</svg>
